<?xml version="1.0" encoding="UTF-8" standalone="no"?>
<!DOCTYPE svg PUBLIC "-//W3C//DTD SVG 1.1//EN"
 "http://www.w3.org/Graphics/SVG/1.1/DTD/svg11.dtd">
<!-- Generated by graphviz version 14.1.2 (0)
 -->
<!-- Title: pastafarianism Pages: 1 -->
<svg width="600pt" height="285pt"
 viewBox="0.00 0.00 600.00 285.00" xmlns="http://www.w3.org/2000/svg" xmlns:xlink="http://www.w3.org/1999/xlink">
<g id="graph0" class="graph" transform="scale(1 1) rotate(0) translate(4 281)">
<title>pastafarianism</title>
<polygon fill="white" stroke="none" points="-4,4 -4,-281 596.17,-281 596.17,4 -4,4"/>
<!-- Main -->
<g id="node1" class="node">
<title>Main</title>
<polygon fill="orange" stroke="black" points="381.19,-277 327.19,-277 327.19,-241 381.19,-241 381.19,-277"/>
<text xml:space="preserve" text-anchor="middle" x="354.19" y="-257.2" font-family="Times,serif" font-size="9.00">Ⓜ Main</text>
</g>
<!-- Does Map Exist? -->
<g id="node2" class="node">
<title>Does Map Exist?</title>
<polygon fill="cyan" stroke="black" points="176.44,-179.54 176.44,-194.46 141.73,-205 92.66,-205 57.95,-194.46 57.95,-179.54 92.66,-169 141.73,-169 176.44,-179.54"/>
<text xml:space="preserve" text-anchor="middle" x="117.19" y="-184.07" font-family="Times,serif" font-size="9.00">Does Map Exist?</text>
</g>
<!-- Main&#45;&gt;Does Map Exist? -->
<g id="edge1" class="edge">
<title>Main&#45;&gt;Does Map Exist?</title>
<path fill="none" stroke="black" d="M327.01,-249.97C288.77,-238.68 218.34,-217.87 169.7,-203.51"/>
<polygon fill="black" stroke="black" points="170.78,-200.18 160.2,-200.7 168.8,-206.89 170.78,-200.18"/>
</g>
<!-- Path to corner -->
<g id="node7" class="node">
<title>Path to corner</title>
<ellipse fill="gray" stroke="black" cx="243.19" cy="-187" rx="48.96" ry="18"/>
<text xml:space="preserve" text-anchor="middle" x="243.19" y="-184.07" font-family="Times,serif" font-size="9.00">Path to corner</text>
</g>
<!-- Main&#45;&gt;Path to corner -->
<g id="edge6" class="edge">
<title>Main&#45;&gt;Path to corner</title>
<path fill="none" stroke="black" d="M326.76,-240.7C311.55,-231.11 292.53,-219.11 276.48,-208.99"/>
<polygon fill="black" stroke="black" points="278.54,-206.15 268.21,-203.78 274.8,-212.07 278.54,-206.15"/>
</g>
<!-- Go to corner -->
<g id="node8" class="node">
<title>Go to corner</title>
<ellipse fill="gray" stroke="black" cx="354.19" cy="-187" rx="44.08" ry="18"/>
<text xml:space="preserve" text-anchor="middle" x="354.19" y="-184.07" font-family="Times,serif" font-size="9.00">Go to corner</text>
</g>
<!-- Main&#45;&gt;Go to corner -->
<g id="edge7" class="edge">
<title>Main&#45;&gt;Go to corner</title>
<path fill="none" stroke="black" d="M354.19,-240.7C354.19,-233.41 354.19,-224.73 354.19,-216.54"/>
<polygon fill="black" stroke="black" points="357.69,-216.62 354.19,-206.62 350.69,-216.62 357.69,-216.62"/>
</g>
<!-- Path to sink -->
<g id="node9" class="node">
<title>Path to sink</title>
<ellipse fill="gray" stroke="black" cx="458.19" cy="-187" rx="41.86" ry="18"/>
<text xml:space="preserve" text-anchor="middle" x="458.19" y="-184.07" font-family="Times,serif" font-size="9.00">Path to sink</text>
</g>
<!-- Main&#45;&gt;Path to sink -->
<g id="edge8" class="edge">
<title>Main&#45;&gt;Path to sink</title>
<path fill="none" stroke="black" d="M380.17,-240.52C394.38,-230.95 412.09,-219.03 427.04,-208.97"/>
<polygon fill="black" stroke="black" points="428.81,-212 435.15,-203.51 424.9,-206.19 428.81,-212"/>
</g>
<!-- Go to sink -->
<g id="node10" class="node">
<title>Go to sink</title>
<ellipse fill="gray" stroke="black" cx="555.19" cy="-187" rx="36.98" ry="18"/>
<text xml:space="preserve" text-anchor="middle" x="555.19" y="-184.07" font-family="Times,serif" font-size="9.00">Go to sink</text>
</g>
<!-- Main&#45;&gt;Go to sink -->
<g id="edge9" class="edge">
<title>Main&#45;&gt;Go to sink</title>
<path fill="none" stroke="black" d="M381.42,-248.91C412.43,-238.52 464.58,-220.87 509.19,-205 511.39,-204.22 513.64,-203.41 515.91,-202.59"/>
<polygon fill="black" stroke="black" points="516.91,-205.95 525.1,-199.24 514.51,-199.38 516.91,-205.95"/>
</g>
<!-- Test for map -->
<g id="node3" class="node">
<title>Test for map</title>
<ellipse fill="gray" stroke="black" cx="43.19" cy="-102.5" rx="43.19" ry="18"/>
<text xml:space="preserve" text-anchor="middle" x="43.19" y="-99.58" font-family="Times,serif" font-size="9.00">Test for map</text>
</g>
<!-- Does Map Exist?&#45;&gt;Test for map -->
<g id="edge2" class="edge">
<title>Does Map Exist?&#45;&gt;Test for map</title>
<path fill="none" stroke="black" d="M101.5,-168.5C91.02,-156.82 77.08,-141.28 65.46,-128.33"/>
<polygon fill="black" stroke="black" points="68.15,-126.08 58.87,-120.98 62.94,-130.76 68.15,-126.08"/>
</g>
<!-- Mapping -->
<g id="node4" class="node">
<title>Mapping</title>
<polygon fill="gold" stroke="black" points="280.32,-133 140.13,-133 104.07,-72 244.26,-72 280.32,-133"/>
<text xml:space="preserve" text-anchor="middle" x="192.19" y="-105.2" font-family="Times,serif" font-size="9.00">Mapping</text>
<text xml:space="preserve" text-anchor="middle" x="192.19" y="-93.95" font-family="Times,serif" font-size="9.00">SuccessOnOne</text>
</g>
<!-- Does Map Exist?&#45;&gt;Mapping -->
<g id="edge3" class="edge">
<title>Does Map Exist?&#45;&gt;Mapping</title>
<path fill="none" stroke="black" d="M133.1,-168.5C140.21,-160.68 148.89,-151.13 157.39,-141.78"/>
<polygon fill="black" stroke="black" points="159.94,-144.19 164.07,-134.43 154.76,-139.48 159.94,-144.19"/>
</g>
<!-- Mapping environment -->
<g id="node5" class="node">
<title>Mapping environment</title>
<ellipse fill="gray" stroke="black" cx="112.19" cy="-18" rx="70.26" ry="18"/>
<text xml:space="preserve" text-anchor="middle" x="112.19" y="-15.07" font-family="Times,serif" font-size="9.00">Mapping environment</text>
</g>
<!-- Mapping&#45;&gt;Mapping environment -->
<g id="edge4" class="edge">
<title>Mapping&#45;&gt;Mapping environment</title>
<path fill="none" stroke="black" d="M163.31,-71.72C154.36,-62.48 144.6,-52.42 136.03,-43.58"/>
<polygon fill="black" stroke="black" points="138.77,-41.38 129.29,-36.63 133.74,-46.25 138.77,-41.38"/>
</g>
<!-- Move around the table -->
<g id="node6" class="node">
<title>Move around the table</title>
<ellipse fill="gray" stroke="black" cx="272.19" cy="-18" rx="71.6" ry="18"/>
<text xml:space="preserve" text-anchor="middle" x="272.19" y="-15.07" font-family="Times,serif" font-size="9.00">Move around the table</text>
</g>
<!-- Mapping&#45;&gt;Move around the table -->
<g id="edge5" class="edge">
<title>Mapping&#45;&gt;Move around the table</title>
<path fill="none" stroke="black" d="M221.08,-71.72C230.03,-62.48 239.79,-52.42 248.36,-43.58"/>
<polygon fill="black" stroke="black" points="250.65,-46.25 255.1,-36.63 245.62,-41.38 250.65,-46.25"/>
</g>
</g>
</svg>
